<svg id="Capa_1" enable-background="new 0 0 512 512" height="512" viewBox="0 0 512 512" width="512" xmlns="http://www.w3.org/2000/svg"><g><g><path clip-rule="evenodd" d="m126.823 331.366h-57.762-5.001c-10.711 0-19.462 8.76-19.462 19.448v131.767c0 10.688 8.751 19.419 19.462 19.419h5.001 290.829c10.711 0 19.491-8.732 19.491-19.419v-4.933-126.834c0-10.688-8.779-19.448-19.491-19.448z" fill="#66e0f7" fill-rule="evenodd"/></g><g><path clip-rule="evenodd" d="m356.991 10v66.592c0 15.365 12.615 27.952 28.015 27.952h82.396z" fill="#ccf5fc" fill-rule="evenodd"/></g><g><path clip-rule="evenodd" d="m171.544 226.049v44.367h44.465v-44.367h-19.831z" fill="#a0e5a5" fill-rule="evenodd"/></g><g><path clip-rule="evenodd" d="m319.175 122.801h-44.466v24.778 19.589h44.466v-19.646z" fill="#a0e5a5" fill-rule="evenodd"/></g><g><path clip-rule="evenodd" d="m378.187 226.049v44.367h44.465v-44.367h-24.633z" fill="#a0e5a5" fill-rule="evenodd"/></g><g><path clip-rule="evenodd" d="m356.991 10h-214.683c-8.524 0-15.485 6.946-15.485 15.45v305.916h233.066c10.711 0 19.491 8.76 19.491 19.448v126.834h72.537c8.524 0 15.485-6.946 15.485-15.45v-357.653h-82.396c-15.399 0-28.015-12.587-28.015-27.952zm41.028 216.049h24.634v44.366h-44.465v-44.366zm-123.31-78.47v-24.777h44.465v24.72 19.646h-44.465zm-103.165 78.47h44.465v44.366h-44.465z" fill="#fff" fill-rule="evenodd"/></g><g><path d="m477.397 104.371c-.001-.073-.003-.145-.006-.218-.004-.087-.01-.17-.017-.251-.171-2.636-1.376-5.161-3.469-6.953l-110.41-94.545c-1.592-1.364-3.535-2.143-5.541-2.337-.243-.043-.555-.067-.963-.067h-.015c-.005 0-.01 0-.016 0h-214.652c-14.052 0-25.485 11.417-25.485 25.45v98.06c0 5.522 4.477 10 10 10s10-4.478 10-10v-98.06c0-3.005 2.46-5.45 5.485-5.45h204.683v56.592c0 20.928 17.054 37.953 38.015 37.953h72.396v347.652c0 3.006-2.461 5.451-5.485 5.451h-62.536v-116.835c0-16.237-13.229-29.447-29.491-29.447h-223.067v-108.017c0-5.522-4.477-10-10-10s-10 4.478-10 10v108.018h-52.763c-16.246 0-29.462 13.21-29.462 29.447v131.768c0 16.221 13.217 29.418 29.462 29.418h295.829c14.529 0 26.629-10.538 29.044-24.352h62.983c14.053 0 25.485-11.417 25.485-25.451v-357.652c.001-.062-.002-.115-.004-.174zm-92.391-9.826c-9.934 0-18.015-8.054-18.015-17.953v-44.863l73.358 62.816zm-15.625 388.036c0 5.193-4.258 9.419-9.491 9.419h-295.83c-5.218 0-9.462-4.226-9.462-9.419v-131.768c0-5.209 4.245-9.447 9.462-9.447h295.829c5.145 0 9.491 4.326 9.491 9.447v131.768z"/><path d="m319.175 112.802h-44.465c-5.522 0-10 4.478-10 10v17.045c-36.551 10.888-65.404 39.717-76.266 76.202h-16.899c-5.523 0-10 4.478-10 10v44.367c0 5.522 4.477 10 10 10h44.465c5.523 0 10-4.478 10-10v-44.367c0-5.522-4.477-10-10-10h-6.485c9.422-25.446 29.685-45.687 55.185-55.121v6.24c0 5.522 4.478 10 10 10h44.465c5.522 0 10-4.478 10-10v-6.352c25.671 9.37 46.06 29.658 55.507 55.233h-6.495c-5.522 0-10 4.478-10 10v44.367c0 5.522 4.478 10 10 10h44.465c5.522 0 10-4.478 10-10v-44.367c0-5.522-4.478-10-10-10h-16.894c-10.878-36.625-39.852-65.487-76.583-76.287v-16.96c0-5.523-4.478-10-10-10zm-113.165 147.614h-24.465v-24.367h14.606c.012 0 .024.002.036.002.015 0 .03-.002.045-.002h9.777v24.367zm103.165-113.03v.067 9.714h-24.465v-9.706c0-.015 0-.031 0-.046v-14.614h24.465zm79.012 88.663h9.777c.015 0 .03.002.045.002.012 0 .024-.002.036-.002h14.606v24.367h-24.465v-24.367z"/><path d="m128.396 406.697h-4.773c-6.283 0-11.395-5.103-11.395-11.375 0-6.257 5.111-11.347 11.395-11.347h25.202c5.523 0 10-4.478 10-10s-4.477-10-10-10h-25.202c-17.311 0-31.395 14.063-31.395 31.347 0 17.3 14.083 31.375 31.395 31.375h4.773c6.283 0 11.395 5.09 11.395 11.347s-5.111 11.348-11.395 11.348h-26.168c-5.523 0-10 4.478-10 10s4.477 10 10 10h26.168c17.311 0 31.395-14.063 31.395-31.348-.001-17.284-14.084-31.347-31.395-31.347z"/><path d="m315.879 404.345h-5.853c-5.522 0-10 4.478-10 10s4.478 10 10 10h5.853c3.893 0 7.871.846 7.871 7.122v7.229c0 2.646 0 10.695-11.337 10.695h-22.19c-7.152 0-7.474-7.529-7.474-7.605v-46.89c0-6.736 3.539-10.921 9.235-10.921h34.18c5.522 0 10-4.478 10-10s-4.478-10-10-10h-34.18c-16.94 0-29.235 13.004-29.235 30.921v46.89c0 11.463 8.523 27.605 27.474 27.605h22.19c18.743 0 31.337-12.336 31.337-30.695v-7.229c0-15.969-11.461-27.122-27.871-27.122z"/><path d="m242.543 364.457c-5.255-1.692-10.891 1.198-12.583 6.454l-17.979 55.838-17.96-55.836c-1.691-5.257-7.325-8.146-12.582-6.457-5.258 1.691-8.149 7.324-6.458 12.582l27.475 85.416c1.33 4.134 5.175 6.937 9.518 6.938h.001c4.342 0 8.188-2.802 9.519-6.936l27.503-85.416c1.692-5.257-1.197-10.891-6.454-12.583z"/><path d="m126.823 178.443c5.523 0 10-4.478 10-10v-.057c0-5.522-4.477-9.972-10-9.972s-10 4.506-10 10.028 4.477 10.001 10 10.001z"/></g></g></svg>